<?xml version="1.0" encoding="UTF-8"?>
<svg version="1.1" xmlns="http://www.w3.org/2000/svg" width="1280" height="960">
<path d="M0 0 C2.6667194 -0.06959357 5.33268917 -0.1194742 8 -0.15869141 C9.12801025 -0.19071655 9.12801025 -0.19071655 10.27880859 -0.22338867 C15.1719063 -0.25532795 15.1719063 -0.25532795 17.23974609 1.32666016 C18.87492739 3.40968631 19.40999363 5.09623043 20.078125 7.65380859 C21.55061927 12.93184001 23.39263085 17.986089 25.375 23.09130859 C25.72135498 23.99196045 26.06770996 24.8926123 26.42456055 25.82055664 C27.48692512 28.57921898 28.55491617 31.33563227 29.625 34.09130859 C30.12217529 35.37255615 30.12217529 35.37255615 30.62939453 36.6796875 C31.84313107 39.80553343 33.05721173 42.93122464 34.27832031 46.05419922 C34.80422215 47.3999456 35.32822499 48.74643601 35.85009766 50.09375 C36.39125543 51.48875723 36.9382802 52.88149643 37.48974609 54.27246094 C38.68642701 57.3457392 39.625 59.7628207 39.625 63.09130859 C40.285 63.09130859 40.945 63.09130859 41.625 63.09130859 C41.625 42.63130859 41.625 22.17130859 41.625 1.09130859 C54.0315279 -1.38999699 67.1704203 0.49823337 79.625 1.09130859 C79.955 33.43130859 80.285 65.77130859 80.625 99.09130859 C82.275 93.81130859 83.925 88.53130859 85.625 83.09130859 C86.75900756 79.6280544 87.89943216 76.16956972 89.0625 72.71630859 C89.50299683 71.40049805 89.50299683 71.40049805 89.95239258 70.05810547 C91.11872065 66.57450485 92.28864035 63.09211642 93.45898438 59.60986328 C96.26059431 51.26947727 99.01060994 42.92757701 101.55859375 34.50537109 C103.11532924 29.52153658 104.79753663 24.58081589 106.47998047 19.63818359 C108.21079202 14.50200859 109.65903542 9.36627269 110.7890625 4.06005859 C111.625 2.09130859 111.625 2.09130859 113.34202576 0.98344421 C116.04120673 -0.07133575 118.09219703 -0.15599569 120.98852539 -0.15161133 C122.0596608 -0.15468796 123.1307962 -0.15776459 124.23439026 -0.16093445 C125.96108192 -0.15015617 125.96108192 -0.15015617 127.72265625 -0.13916016 C129.50137367 -0.13847282 129.50137367 -0.13847282 131.31602478 -0.13777161 C133.82177736 -0.13475147 136.32752809 -0.12687233 138.83325195 -0.11450195 C142.67601139 -0.09624599 146.51852985 -0.09399231 150.36132812 -0.09423828 C152.79427292 -0.08932296 155.22721609 -0.08349458 157.66015625 -0.07666016 C159.38988426 -0.07499092 159.38988426 -0.07499092 161.15455627 -0.07328796 C162.22253952 -0.06690811 163.29052277 -0.06052826 164.39086914 -0.05395508 C165.80173546 -0.04823738 165.80173546 -0.04823738 167.24110413 -0.04240417 C169.625 0.09130859 169.625 0.09130859 172.625 1.09130859 C173.63476562 3.35913086 173.63476562 3.35913086 174.53125 6.34521484 C174.87027344 7.43463379 175.20929688 8.52405273 175.55859375 9.64648438 C175.91050781 10.78327637 176.26242187 11.92006836 176.625 13.09130859 C177.35490632 15.22875224 178.09445559 17.36292795 178.84375 19.49365234 C179.40642578 21.10723633 179.40642578 21.10723633 179.98046875 22.75341797 C180.74227326 24.93353087 181.50529044 27.11322042 182.26953125 29.29248047 C184.54426228 35.8235381 186.66449888 42.38239804 188.67382812 48.99975586 C190.0762754 53.55806946 191.59750564 58.07369645 193.125 62.59130859 C196.36975875 72.26511276 199.5030512 81.94168162 202.18261719 91.79003906 C202.45273621 92.78228485 202.72285522 93.77453064 203.00115967 94.79684448 C203.20702698 95.55401764 203.41289429 96.3111908 203.625 97.09130859 C203.63530746 95.90336197 203.64561493 94.71541534 203.65623474 93.49147034 C203.75378933 82.32217448 203.8565059 71.15293658 203.96433926 59.98373508 C204.01961613 54.2408857 204.0730436 48.49803126 204.12231445 42.75512695 C204.1698879 37.2178634 204.22222789 31.68066393 204.27794075 26.14347649 C204.29839622 24.02588423 204.31710389 21.90827438 204.33407402 19.79065132 C204.35804763 16.83554821 204.38811143 13.88056746 204.41967773 10.92553711 C204.4254332 10.04081223 204.43118866 9.15608734 204.43711853 8.24455261 C204.51094784 2.20536076 204.51094784 2.20536076 205.625 1.09130859 C208.02584548 0.9803451 210.39819423 0.93392433 212.80004883 0.93017578 C213.55145142 0.92521088 214.302854 0.92024597 215.07702637 0.91513062 C217.57870385 0.90045541 220.08031767 0.89369357 222.58203125 0.88818359 C224.32305401 0.88243081 226.06407676 0.87667309 227.80509949 0.87091064 C231.46796972 0.86038157 235.13081792 0.85455329 238.79370117 0.85107422 C243.45935487 0.84562487 248.12471147 0.82168218 252.79027271 0.79310226 C256.39453434 0.77434682 259.99872679 0.76926319 263.60303307 0.76773834 C265.32081389 0.76473371 267.03859415 0.75678028 268.75632668 0.74355316 C280.89536397 0.65685233 294.33153644 0.66326315 304.625 8.09130859 C307.17982247 10.63636119 309.36501837 13.26633155 311.625 16.09130859 C311.625 11.47130859 311.625 6.85130859 311.625 2.09130859 C335.02183417 1.38544246 358.41509144 0.96995634 381.82302856 0.9140625 C384.40269074 0.90721768 386.98234608 0.89695491 389.5619812 0.88330078 C393.19893918 0.86551972 396.83566004 0.86114312 400.47265625 0.86083984 C401.5728006 0.85369461 402.67294495 0.84654938 403.806427 0.83918762 C405.31195633 0.84374214 405.31195633 0.84374214 406.84790039 0.84838867 C407.72636124 0.84696365 408.60482208 0.84553864 409.50990295 0.84407043 C411.625 1.09130859 411.625 1.09130859 413.625 3.09130859 C414.08779804 7.4897412 413.94895059 11.92138276 413.9375 16.34130859 C413.95361328 17.56978516 413.96972656 18.79826172 413.98632812 20.06396484 C413.98697266 21.25376953 413.98761719 22.44357422 413.98828125 23.66943359 C413.99275269 25.29993652 413.99275269 25.29993652 413.99731445 26.96337891 C412.6197581 38.53665893 400.91502287 48.58509422 393.625 57.09130859 C392.63929574 58.24362909 391.65361864 59.39597283 390.66796875 60.54833984 C386.53247228 65.37907723 382.3917819 70.20518831 378.234375 75.01708984 C377.68257568 75.65718994 377.13077637 76.29729004 376.56225586 76.95678711 C375.49969135 78.18923421 374.43546703 79.42025274 373.36938477 80.6496582 C370.71823719 83.6768742 370.71823719 83.6768742 368.625 87.09130859 C369.1843222 87.09130859 369.74364441 87.09130859 370.31991577 87.09130859 C385.42161051 87.09130859 400.52330526 87.09130859 415.625 87.09130859 C415.63530746 86.01611465 415.64561493 84.94092072 415.65623474 83.83314514 C415.75379419 73.7234067 415.85651123 63.61373223 415.96433926 53.50409794 C416.01961342 48.30605806 416.07304046 43.1080126 416.12231445 37.90991211 C416.1698919 32.89783597 416.22223204 27.88583055 416.27794075 22.87383842 C416.2983944 20.95720609 416.31710239 19.04055434 416.33407402 17.12388802 C416.35805166 14.44897533 416.38811487 11.77419761 416.41967773 9.09936523 C416.4254332 8.298797 416.43118866 7.49822876 416.43711853 6.67340088 C416.51094784 1.20536076 416.51094784 1.20536076 417.625 0.09130859 C419.09963478 0.02759367 420.57739281 0.03416602 422.05297852 0.06958008 C422.99387833 0.08967636 423.93477814 0.10977264 424.90419006 0.13047791 C425.92709641 0.15751297 426.95000275 0.18454803 428.00390625 0.21240234 C429.04570541 0.23601334 430.08750458 0.25962433 431.16087341 0.28395081 C434.5032136 0.36080186 437.84533446 0.44473348 441.1875 0.52880859 C443.44725473 0.58200783 445.70702031 0.63474834 447.96679688 0.68701172 C453.5196683 0.81644583 459.07237556 0.95170057 464.625 1.09130859 C465.59467004 4.00031873 465.74852446 5.8311835 465.74525452 8.85588074 C465.74731651 10.32612953 465.74731651 10.32612953 465.74942017 11.82608032 C465.74582489 12.89998016 465.74222961 13.97388 465.73852539 15.08032227 C465.73867142 16.21217453 465.73881744 17.34402679 465.7389679 18.51017761 C465.73826995 22.25989686 465.73048304 26.00956674 465.72265625 29.75927734 C465.72079165 32.35573805 465.71936795 34.9521991 465.71836853 37.54866028 C465.71493752 43.68969848 465.70705206 49.83071625 465.69701904 55.97174674 C465.68584438 62.96321649 465.68034404 69.95468708 465.67532361 76.94616354 C465.66486909 91.32788811 465.64727808 105.70959772 465.625 120.09130859 C458.84415837 120.25947893 452.06315817 120.41937968 445.28198242 120.57348633 C442.97432014 120.6269112 440.66670114 120.68224093 438.35913086 120.73950195 C435.04550512 120.821399 431.73178495 120.89648223 428.41796875 120.97021484 C427.3835112 120.99724991 426.34905365 121.02428497 425.2832489 121.05213928 C424.3224794 121.07223557 423.3617099 121.09233185 422.37182617 121.11303711 C421.52577316 121.13302261 420.67972015 121.15300812 419.80802917 121.17359924 C417.625 121.09130859 417.625 121.09130859 414.625 120.09130859 C411.70022871 120.0336037 408.80218242 120.03536867 405.87890625 120.08544922 C404.98193527 120.09666306 404.08496429 120.10787689 403.16081238 120.11943054 C401.20308483 120.14449047 399.24538628 120.17189762 397.28771973 120.20133972 C394.14205482 120.2482361 390.99636888 120.28818589 387.85058594 120.32629395 C378.90074504 120.43602818 369.95108725 120.55836981 361.00146484 120.68457031 C354.45939644 120.77585287 347.91726864 120.85946367 341.375 120.93505859 C340.30085846 120.94748596 339.22671692 120.95991333 338.12002563 120.97271729 C316.27360755 121.20879269 294.45975157 120.78879812 272.625 120.09130859 C270.4741786 115.24752293 269.14575813 111.27460353 268.484375 105.95068359 C268.29949725 104.61977037 268.11325991 103.28904543 267.92578125 101.95849609 C267.64422837 99.89048769 267.37277938 97.82277311 267.12451172 95.75048828 C266.56626482 88.01949002 266.56626482 88.01949002 263.06835938 81.53857422 C261.02744334 80.53734678 261.02744334 80.53734678 257.625 80.09130859 C255.975 79.76130859 254.325 79.43130859 252.625 79.09130859 C252.625 92.62130859 252.625 106.15130859 252.625 120.09130859 C222.595 120.09130859 192.565 120.09130859 161.625 120.09130859 C157.625 108.09130859 157.625 108.09130859 157.625 102.09130859 C142.28 102.58630859 142.28 102.58630859 126.625 103.09130859 C125.34976118 108.31094799 125.34976118 108.31094799 124.08227539 113.5324707 C122.73611111 118.98019748 122.73611111 118.98019748 121.625 120.09130859 C118.98639421 120.26671228 116.37267148 120.37652341 113.73046875 120.44287109 C112.89544327 120.46643173 112.06041779 120.48999237 111.2000885 120.51426697 C108.40435717 120.58895276 105.60852578 120.65365693 102.8125 120.71630859 C101.37928406 120.75049393 101.37928406 120.75049393 99.91711426 120.78536987 C75.14497098 121.35196404 50.38986115 120.7508972 25.625 120.09130859 C22.04173373 112.6145445 19.14806773 105.10883542 16.625 97.21630859 C13.31964875 87.09774388 9.8856772 77.14289193 5.54980469 67.41137695 C5.18941101 66.60204208 4.82901733 65.79270721 4.45770264 64.95884705 C4.18291077 64.34255936 3.9081189 63.72627167 3.625 63.09130859 C3.61469254 63.79066025 3.60438507 64.4900119 3.59376526 65.21055603 C3.49594968 71.78844523 3.39345843 78.3662428 3.28566074 84.9439764 C3.23040198 88.32597982 3.17697744 91.70799183 3.12768555 95.09008789 C3.07099054 98.97470287 3.00642415 102.85916737 2.94140625 106.74365234 C2.91633751 108.57330788 2.91633751 108.57330788 2.89076233 110.43992615 C2.87081711 111.56101273 2.85087189 112.6820993 2.83032227 113.8371582 C2.81477798 114.82977158 2.7992337 115.82238495 2.78321838 116.84507751 C2.625 119.09130859 2.625 119.09130859 1.625 120.09130859 C-1.23594217 120.2048002 -4.07183456 120.25549351 -6.93359375 120.25927734 C-7.79308121 120.26260574 -8.65256866 120.26593414 -9.5381012 120.2693634 C-11.35978661 120.2744363 -13.18148136 120.27677162 -15.00317383 120.27661133 C-17.7971929 120.27879662 -20.59081657 120.29694504 -23.38476562 120.31591797 C-25.15104031 120.318852 -26.91731688 120.32083673 -28.68359375 120.32177734 C-29.52321152 120.32896286 -30.36282928 120.33614838 -31.22789001 120.34355164 C-37.14617819 120.32013041 -37.14617819 120.32013041 -39.375 118.09130859 C-39.54561065 115.20516158 -39.57717367 112.41868234 -39.52734375 109.53271484 C-39.51904037 108.58529922 -39.510737 107.63788361 -39.50218201 106.66175842 C-39.48112773 104.43699493 -39.45513208 102.21227532 -39.42547607 99.98760986 C-39.36895827 95.62494119 -39.3285219 91.26226684 -39.28955078 86.89941406 C-39.20872749 78.11235906 -39.10839086 69.32560517 -39.00268555 60.53881836 C-38.94738708 55.9267212 -38.8972742 51.31458237 -38.84828281 46.70241451 C-38.80907916 43.09984289 -38.76606924 39.49732363 -38.72205925 35.89480782 C-38.70192699 34.19463255 -38.68317245 32.49444031 -38.66592598 30.79423332 C-38.38082868 3.09713727 -38.38082868 3.09713727 -36.375 1.09130859 C-34.1621162 0.93139836 -31.94427278 0.83961045 -29.7265625 0.77490234 C-29.04609863 0.75393997 -28.36563477 0.7329776 -27.66455078 0.71138 C-25.4431547 0.64484594 -23.22165307 0.58608089 -21 0.52880859 C-19.87618927 0.49853577 -19.87618927 0.49853577 -18.72967529 0.46765137 C-14.27408745 0.34815238 -9.81833314 0.23975712 -5.36230469 0.13812256 C-3.57477282 0.09601454 -1.78737375 0.04835632 0 0 Z M252.625 26.09130859 C251.80226788 28.97332205 251.49665419 31.53907311 251.4921875 34.53271484 C251.49089844 35.36351562 251.48960937 36.19431641 251.48828125 37.05029297 C251.49214844 37.90945313 251.49601562 38.76861328 251.5 39.65380859 C251.49613281 40.51683594 251.49226563 41.37986328 251.48828125 42.26904297 C251.48957031 43.09855469 251.49085938 43.92806641 251.4921875 44.78271484 C251.49331543 45.5375415 251.49444336 46.29236816 251.49560547 47.07006836 C251.55192442 49.29703786 251.55192442 49.29703786 252.625 52.09130859 C259.64315584 52.74113784 264.86009489 51.25252192 270.625 47.09130859 C273.36172184 43.72242001 273.66250666 40.65390853 273.375 36.34130859 C272.68228049 33.10513492 272.68228049 33.10513492 271.625 30.09130859 C265.40124166 27.09468421 259.47219713 26.45632462 252.625 26.09130859 Z M141.625 27.09130859 C139.49582339 31.8282382 138.41669105 36.74171704 137.25 41.77880859 C136.92672729 43.15927368 136.92672729 43.15927368 136.59692383 44.56762695 C135.93450888 47.40769751 135.27906508 50.24930465 134.625 53.09130859 C134.4202002 53.97399414 134.21540039 54.85667969 134.00439453 55.76611328 C133.43470995 58.22741281 132.87200953 60.69017826 132.3125 63.15380859 C132.14121582 63.89655029 131.96993164 64.63929199 131.79345703 65.40454102 C131.04399057 68.75374364 130.625 71.63641761 130.625 75.09130859 C137.885 75.09130859 145.145 75.09130859 152.625 75.09130859 C152.30375655 63.41946327 150.37691928 53.35479517 147.18115234 42.15869141 C146.27262599 38.78143014 145.68596786 35.36133297 145.1796875 31.90380859 C144.49044914 29.65164946 143.38529041 28.61372192 141.625 27.09130859 Z M314.625 34.09130859 C314.33278564 35.00928223 314.33278564 35.00928223 314.03466797 35.94580078 C313.77314941 36.75178711 313.51163086 37.55777344 313.2421875 38.38818359 C312.98550293 39.18579102 312.72881836 39.98339844 312.46435547 40.80517578 C309.40577939 49.13574774 302.67814024 54.25091823 295.625 59.09130859 C297.85860618 61.4108227 300.09471241 63.46316425 302.625 65.46630859 C309.31878434 71.32336989 310.8249753 77.66392024 312.625 86.09130859 C316.44582518 84.38880538 317.57747796 82.74123919 319.625 79.09130859 C320.04523438 78.67494141 320.46546875 78.25857422 320.8984375 77.82958984 C323.39659107 75.31448048 325.51393551 72.50974993 327.6875 69.71630859 C328.40679688 68.79724731 328.40679688 68.79724731 329.140625 67.85961914 C331.59841094 64.71360475 334.03993693 61.55569998 336.46484375 58.38427734 C337.13664673 57.50618408 337.13664673 57.50618408 337.82202148 56.61035156 C339.06107648 54.9875308 340.29626967 53.36176362 341.53125 51.73583984 C343.15426617 49.68587353 344.72309344 47.8692949 346.625 46.09130859 C349.65265133 43.21134757 351.86417346 40.86450833 353.625 37.09130859 C354.60595748 36.07262198 355.60202078 35.06778876 356.625 34.09130859 C356.625 33.76130859 356.625 33.43130859 356.625 33.09130859 C342.58578522 32.96042091 328.63944237 33.24010602 314.625 34.09130859 Z " fill="#51005D" transform="translate(454.375,443.90869140625)"/>
<path d="M0 0 C1.31935547 -0.00773437 2.63871094 -0.01546875 3.99804688 -0.0234375 C15.17248083 -0.00129895 25.60227323 1.24157647 36.1875 4.875 C36.94699951 5.13442383 37.70649902 5.39384766 38.48901367 5.66113281 C64.10929371 14.71829693 88.1288639 33.74026205 103.4375 56.25 C104.05625 57.06791016 104.05625 57.06791016 104.6875 57.90234375 C121.82031383 80.65686211 127.85005931 111.5994662 124.75 139.5 C122.09510863 157.23021857 117.10436321 174.62949843 106.4375 189.25 C105.24967586 190.97894402 104.06218441 192.70811665 102.875 194.4375 C94.29966118 206.61259644 83.7775854 216.00340509 71.4375 224.25 C70.79167969 224.69214844 70.14585937 225.13429688 69.48046875 225.58984375 C60.4151035 231.56344232 50.57307236 235.40012333 40.25 238.5625 C39.02168457 238.94426392 39.02168457 238.94426392 37.76855469 239.33374023 C11.5647466 247.04522163 -21.47463602 243.51441402 -45.5625 230.8125 C-47.57657942 229.64903949 -49.57707561 228.46171211 -51.5625 227.25 C-52.63113281 226.61320313 -53.69976562 225.97640625 -54.80078125 225.3203125 C-60.40953381 221.88521881 -60.40953381 221.88521881 -62.5625 220.25 C-62.5625 219.59 -62.5625 218.93 -62.5625 218.25 C-63.614375 217.9096875 -63.614375 217.9096875 -64.6875 217.5625 C-70.24109598 215.02716271 -73.88357169 210.99700428 -77.5625 206.25 C-79.20552953 204.56002677 -80.87721312 202.89783606 -82.5625 201.25 C-97.05308596 187.02335914 -97.05308596 187.02335914 -97.5625 181.25 C-98.5525 180.92 -99.5425 180.59 -100.5625 180.25 C-101.80859375 178.28125 -101.80859375 178.28125 -103 175.75 C-103.43054688 174.84121094 -103.86109375 173.93242188 -104.3046875 172.99609375 C-104.71976563 172.08988281 -105.13484375 171.18367187 -105.5625 170.25 C-105.91570312 169.49847656 -106.26890625 168.74695313 -106.6328125 167.97265625 C-107.65434903 165.74860232 -108.61739367 163.50754143 -109.5625 161.25 C-109.89121094 160.48945312 -110.21992188 159.72890625 -110.55859375 158.9453125 C-122.16677084 129.94745377 -120.01665712 96.69033167 -107.97436523 68.24780273 C-106.74601515 65.49820706 -105.70844127 63.39594127 -103.5625 61.25 C-103.29179687 60.528125 -103.02109375 59.80625 -102.7421875 59.0625 C-101.20443178 55.39632743 -99.02870823 52.44441822 -96.6875 49.25 C-96.25308594 48.64671875 -95.81867188 48.0434375 -95.37109375 47.421875 C-90.13989433 40.19559353 -90.13989433 40.19559353 -87.5625 37.25 C-86.9025 37.25 -86.2425 37.25 -85.5625 37.25 C-85.35753906 36.70085937 -85.15257812 36.15171875 -84.94140625 35.5859375 C-83.03464271 32.35578284 -80.36050799 30.22768474 -77.5 27.875 C-76.9107373 27.38604248 -76.32147461 26.89708496 -75.71435547 26.39331055 C-71.18398543 22.67613142 -66.61835963 19.22920323 -61.5625 16.25 C-60.48871094 15.61449219 -59.41492188 14.97898437 -58.30859375 14.32421875 C-51.58472123 10.48031385 -44.77342898 7.36860498 -37.4375 4.875 C-36.4012146 4.51728516 -36.4012146 4.51728516 -35.34399414 4.15234375 C-23.77864319 0.43380601 -12.06349984 -0.070927 0 0 Z M-56.5625 18.25 C-57.614375 18.8275 -58.66625 19.405 -59.75 20 C-74.07820262 28.19648272 -86.96237775 40.11646576 -95.5625 54.25 C-96.15417969 55.19359375 -96.74585938 56.1371875 -97.35546875 57.109375 C-112.00306874 81.22013661 -118.29906292 111.4871451 -111.75 139.25 C-111.07362412 141.93663211 -110.33136597 144.58682656 -109.5625 147.25 C-109.28921875 148.27609375 -109.0159375 149.3021875 -108.734375 150.359375 C-107.46016765 154.9410993 -105.87397916 159.06732343 -103.5625 163.25 C-102.23761587 159.27534762 -103.36313026 156.3990372 -104.4375 152.5 C-109.63654955 133.28144443 -108.33047636 114.41046023 -103.5625 95.25 C-103.34722656 94.30253906 -103.13195312 93.35507812 -102.91015625 92.37890625 C-97.1884789 70.20273195 -81.68357458 46.99738305 -62.5625 34.25 C-62.5625 33.59 -62.5625 32.93 -62.5625 32.25 C-60.5825 31.59 -58.6025 30.93 -56.5625 30.25 C-56.5625 29.59 -56.5625 28.93 -56.5625 28.25 C-55.87285156 27.98832031 -55.18320313 27.72664063 -54.47265625 27.45703125 C-51.22016484 26.10801132 -48.13281905 24.54489635 -45 22.9375 C-34.42626749 17.61106035 -24.24716631 13.48629977 -12.5625 11.25 C-11.03882813 10.940625 -11.03882813 10.940625 -9.484375 10.625 C4.28984712 8.13318092 17.57961726 8.6004812 31.1796875 11.69140625 C34.13616486 12.19833222 35.68272492 12.29515336 38.4375 11.25 C11.74422012 -2.82463848 -31.81110366 0.95214915 -56.5625 18.25 Z M-45.5625 57.25 C-45.5625 57.91 -45.5625 58.57 -45.5625 59.25 C-46.67625 59.5903125 -46.67625 59.5903125 -47.8125 59.9375 C-51.09657705 61.50490041 -52.40120845 63.36827794 -54.5625 66.25 C-55.5525 66.91 -56.5425 67.57 -57.5625 68.25 C-58.2462045 69.57467746 -58.91214186 70.90863633 -59.5625 72.25 C-60.00851563 72.6728125 -60.45453125 73.095625 -60.9140625 73.53125 C-64.6421175 77.41832156 -66.94737906 82.57972883 -69.5625 87.25 C-70.03300781 88.03503906 -70.50351563 88.82007813 -70.98828125 89.62890625 C-81.13282509 107.68807871 -81.27897547 132.44015206 -75.9609375 152.0234375 C-73.74199498 159.19768663 -70.31737174 165.77355205 -66.5625 172.25 C-65.76779297 173.62865234 -65.76779297 173.62865234 -64.95703125 175.03515625 C-61.83604163 180.04714762 -58.30760191 183.75721365 -53.5625 187.25 C-52.90636719 187.74113281 -52.25023437 188.23226562 -51.57421875 188.73828125 C-34.51601758 200.80688062 -12.01277743 206.74442486 8.68261719 203.27026367 C12.27706954 202.64018373 15.85857389 201.96262699 19.4375 201.25 C20.17476318 201.11851562 20.91202637 200.98703125 21.67163086 200.8515625 C27.3299914 199.75714457 31.97062279 197.7814983 37 195 C37.74451416 194.59523438 38.48902832 194.19046875 39.25610352 193.7734375 C44.32458507 190.97365176 49.05683104 188.05723376 53.4375 184.25 C54.64792969 183.23486328 54.64792969 183.23486328 55.8828125 182.19921875 C61.5026858 177.34264168 66.055631 172.22329406 70.4375 166.25 C71.10136719 165.44691406 71.76523437 164.64382813 72.44921875 163.81640625 C80.53291231 153.38224777 86.15041295 137.49701672 86.4375 124.25 C86.49550781 122.32027344 86.49550781 122.32027344 86.5546875 120.3515625 C86.98859407 99.38491424 81.84889252 75.34664615 66.83203125 59.5625 C35.710495 33.7431514 -13.48981727 29.84397746 -45.5625 57.25 Z M85.4375 83.25 C86.4375 85.25 86.4375 85.25 86.4375 85.25 Z M87.4375 88.25 C87.57027344 88.90226562 87.70304687 89.55453125 87.83984375 90.2265625 C88.10474609 91.53753906 88.10474609 91.53753906 88.375 92.875 C88.63603516 94.16277344 88.63603516 94.16277344 88.90234375 95.4765625 C89.07894531 96.39179688 89.25554687 97.30703125 89.4375 98.25 C89.61796875 99.11625 89.7984375 99.9825 89.984375 100.875 C91.95256554 115.53462608 91.09978116 130.23100285 86.4375 144.25 C85.96957031 145.75046875 85.96957031 145.75046875 85.4921875 147.28125 C81.97042112 157.81695445 76.47896923 166.72429951 69.4375 175.25 C68.385625 176.61125 68.385625 176.61125 67.3125 178 C56.51384934 190.95838079 40.26807816 200.86140866 23.9375 204.9375 C22.73287109 205.25557617 22.73287109 205.25557617 21.50390625 205.58007812 C5.81203308 209.61113468 -9.71471212 208.61030883 -25.5625 206.25 C-19.48276779 213.28968993 -6.88302269 213.74109112 1.89355469 214.44775391 C24.74194799 215.68804371 44.90905729 209.8413079 63.4375 196.25 C64.04207031 195.80785156 64.64664063 195.36570312 65.26953125 194.91015625 C68.91679664 192.05200897 71.84856339 188.61534614 74.8359375 185.1015625 C76.4375 183.25 76.4375 183.25 78.6875 181.0625 C80.72594647 178.95125187 81.9601059 176.79125923 83.4375 174.25 C84.05367188 173.20328125 84.66984375 172.1565625 85.3046875 171.078125 C93.25355986 157.09148797 97.61293452 142.59317482 97.625 126.4375 C97.63724609 125.58607422 97.64949219 124.73464844 97.66210938 123.85742188 C97.6753671 118.05495748 96.95837474 112.84372573 95.4375 107.25 C95.24454346 106.53900146 95.05158691 105.82800293 94.8527832 105.09545898 C94.26395183 103.01210493 93.63875544 100.9435393 93 98.875 C92.69352539 97.82892578 92.69352539 97.82892578 92.38085938 96.76171875 C91.29612307 93.24054982 90.42839867 90.53459315 87.4375 88.25 Z " fill="#FE6FF9" transform="translate(285.5625,358.75)"/>
<path d="M0 0 C1.28118536 2.56237073 1.12945614 4.40344001 1.1328125 7.26953125 C1.13410156 8.32333984 1.13539063 9.37714844 1.13671875 10.46289062 C1.13285156 11.56826172 1.12898437 12.67363281 1.125 13.8125 C1.12886719 14.90626953 1.13273438 16.00003906 1.13671875 17.12695312 C1.13542969 18.18462891 1.13414062 19.24230469 1.1328125 20.33203125 C1.13168457 21.29858643 1.13055664 22.2651416 1.12939453 23.26098633 C1 26 1 26 0 31 C-14.19 31 -28.38 31 -43 31 C-43.33 35.95 -43.66 40.9 -44 46 C-30.47 46 -16.94 46 -3 46 C-2.814375 50.104375 -2.62875 54.20875 -2.4375 58.4375 C-2.37618896 59.73357178 -2.31487793 61.02964355 -2.25170898 62.36499023 C-2.18705444 63.88394897 -2.18705444 63.88394897 -2.12109375 65.43359375 C-2.05039673 66.99678345 -2.05039673 66.99678345 -1.97827148 68.59155273 C-2 71 -2 71 -3 72 C-5.95529504 72.16029688 -8.88982457 72.25957328 -11.84765625 72.31640625 C-12.7340831 72.33718735 -13.62050995 72.35796844 -14.53379822 72.37937927 C-17.376617 72.444974 -20.21953117 72.50380552 -23.0625 72.5625 C-24.98503606 72.6056758 -26.90756234 72.64928978 -28.83007812 72.69335938 C-33.55328668 72.80066543 -38.27659153 72.90190451 -43 73 C-43 78.28 -43 83.56 -43 89 C-41.123125 88.835 -39.24625 88.67 -37.3125 88.5 C-29.09297773 87.88390255 -20.86364376 87.88707791 -12.625 87.875 C-11.31055908 87.87048828 -9.99611816 87.86597656 -8.6418457 87.86132812 C-6.79659302 87.86422852 -6.79659302 87.86422852 -4.9140625 87.8671875 C-3.7998291 87.86831543 -2.6855957 87.86944336 -1.53759766 87.87060547 C1 88 1 88 2 89 C2.23287008 90.68183948 2.41264166 92.3712416 2.5625 94.0625 C2.64628906 94.98160156 2.73007812 95.90070313 2.81640625 96.84765625 C2.87699219 97.55792969 2.93757812 98.26820313 3 99 C2.99555878 97.89245865 2.99111755 96.7849173 2.98654175 95.64381409 C2.94591953 85.1834514 2.91597909 74.72310481 2.89637566 64.26268101 C2.88595841 58.88545495 2.87183686 53.5082928 2.84912109 48.13110352 C2.82731925 42.93748792 2.8154159 37.74393364 2.81024551 32.5502758 C2.80656292 30.57324191 2.79937184 28.59621121 2.78853989 26.61920357 C2.77392736 23.84054555 2.77202612 21.06213779 2.77294922 18.28344727 C2.76575867 17.47423828 2.75856812 16.6650293 2.75115967 15.83129883 C2.77081507 10.32897298 3.60872329 5.31992777 5 0 C10.42601201 -0.04964329 15.85189015 -0.08583447 21.27807617 -0.10986328 C23.12184962 -0.11988642 24.96560731 -0.13350852 26.80932617 -0.15087891 C29.4679759 -0.17528995 32.12641443 -0.18652017 34.78515625 -0.1953125 C35.60210464 -0.20563507 36.41905304 -0.21595764 37.26075745 -0.22659302 C42.22529236 -0.22755415 46.30538539 0.34903686 51 2 C52.90955207 3.90955207 52.13063121 7.33625797 52.1328125 9.86328125 C52.13413177 10.58673233 52.13545105 11.31018341 52.1368103 12.05555725 C52.13875548 14.47457907 52.13230872 16.8934895 52.125 19.3125 C52.12367065 20.55196381 52.12367065 20.55196381 52.12231445 21.81646729 C52.09606566 42.88364859 51.56259853 63.94145838 51 85 C52.79401245 84.98428955 52.79401245 84.98428955 54.62426758 84.96826172 C59.05783093 84.93208595 63.49138121 84.90910834 67.92504883 84.89013672 C69.84466749 84.88007361 71.76427081 84.86642184 73.68383789 84.84912109 C76.44160752 84.82488636 79.19917464 84.81352008 81.95703125 84.8046875 C83.24623222 84.78920364 83.24623222 84.78920364 84.56147766 84.77340698 C85.36208115 84.77325592 86.16268463 84.77310486 86.98754883 84.77294922 C88.04344963 84.76628738 88.04344963 84.76628738 89.12068176 84.75949097 C91 85 91 85 94 87 C94.26727014 89.48340903 94.34866334 91.71472068 94.29296875 94.1953125 C94.28872391 94.90275604 94.28447906 95.61019958 94.28010559 96.33908081 C94.26329547 98.60143905 94.22564128 100.86291048 94.1875 103.125 C94.17245607 104.65753923 94.15876716 106.1900924 94.14648438 107.72265625 C94.11338462 111.48211318 94.06158825 115.24090618 94 119 C90.79311929 120.60344035 87.30817153 120.12922745 83.78662109 120.11352539 C82.51334206 120.11374443 82.51334206 120.11374443 81.21434021 120.1139679 C78.40068023 120.11326966 75.58708596 120.1054814 72.7734375 120.09765625 C70.82573482 120.09579175 68.87803168 120.094368 66.93032837 120.09336853 C61.79779776 120.08954583 56.66529533 120.07971765 51.53277588 120.06866455 C46.29789613 120.05844512 41.06301184 120.05386977 35.828125 120.04882812 C25.55207093 120.03809517 15.27603781 120.0210217 5 120 C4.67 119.34 4.34 118.68 4 118 C3.01 118.66 2.02 119.32 1 120 C-1.8945295 120.18978505 -4.69199929 120.26253529 -7.58642578 120.24291992 C-8.46307892 120.24481827 -9.33973206 120.24671661 -10.24295044 120.24867249 C-13.14382843 120.25238067 -16.04445672 120.24167687 -18.9453125 120.23046875 C-20.95645112 120.22927704 -22.9675903 120.22882377 -24.97872925 120.2290802 C-29.19369998 120.22751535 -33.40858578 120.21922436 -37.62353516 120.20581055 C-43.03893884 120.18879891 -48.45424932 120.18499682 -53.86967659 120.18575573 C-58.02164609 120.18548447 -62.17359503 120.18001065 -66.32555771 120.17275429 C-68.32314778 120.16956219 -70.32074019 120.16759896 -72.31833267 120.16686058 C-75.10305037 120.16470396 -77.8876671 120.15597515 -80.67236328 120.14526367 C-81.92225037 120.14594345 -81.92225037 120.14594345 -83.1973877 120.14663696 C-88.8855245 120.1144755 -88.8855245 120.1144755 -90 119 C-90.09578593 117.4818148 -90.12188147 115.95917604 -90.12025452 114.43797302 C-90.12162918 113.45214233 -90.12300385 112.46631165 -90.12442017 111.4506073 C-90.12082489 110.36016617 -90.11722961 109.26972504 -90.11352539 108.14624023 C-90.11367142 107.00492645 -90.11381744 105.86361267 -90.1139679 104.68771362 C-90.11326818 100.89465469 -90.10547307 97.10164416 -90.09765625 93.30859375 C-90.09579228 90.68685432 -90.09436828 88.06511454 -90.09336853 85.44337463 C-90.09025551 79.23498045 -90.08204252 73.02660379 -90.07201904 66.81821734 C-90.06085699 59.75182559 -90.05534722 52.68543301 -90.05032361 45.61903465 C-90.03985988 31.07934737 -90.022261 16.53967393 -90 2 C-86.91100347 0.45550173 -83.6295818 0.75803922 -80.234375 0.68359375 C-79.02607529 0.65235413 -79.02607529 0.65235413 -77.79336548 0.6204834 C-75.11234723 0.55370993 -72.43122994 0.4951072 -69.75 0.4375 C-68.8347052 0.41632111 -67.9194104 0.39514221 -66.97637939 0.37332153 C-44.65237289 -0.13757011 -22.32833911 -0.09963903 0 0 Z " fill="#51015C" transform="translate(1017,444)"/>
<path d="M0 0 C1.31935547 -0.00773437 2.63871094 -0.01546875 3.99804688 -0.0234375 C12.00998353 -0.00756442 19.58736305 0.63376826 27.4375 2.25 C27.4375 3.24 27.4375 4.23 27.4375 5.25 C21.8275 4.26 16.2175 3.27 10.4375 2.25 C12.4175 2.58 14.3975 2.91 16.4375 3.25 C13.03563654 5.32414588 10.53492005 5.44215949 6.58984375 5.3046875 C5.43645508 5.27713379 4.28306641 5.24958008 3.09472656 5.22119141 C1.8672168 5.18944824 0.63970703 5.15770508 -0.625 5.125 C-20.01511257 4.89434248 -40.29125506 7.8786186 -56.5625 19.25 C-57.614375 19.8275 -58.66625 20.405 -59.75 21 C-73.78139568 29.01355421 -86.09475003 40.4578315 -94.5625 54.25 C-95.15546875 55.19488281 -95.7484375 56.13976562 -96.359375 57.11328125 C-106.20076039 73.32633282 -112.799488 92.26959429 -112.66015625 111.37109375 C-112.6587413 112.11585464 -112.65732635 112.86061554 -112.65586853 113.62794495 C-112.65031989 115.98117273 -112.63777733 118.3343015 -112.625 120.6875 C-112.61997835 122.29361841 -112.61541661 123.89973832 -112.61132812 125.50585938 C-112.60036735 129.42061043 -112.58313884 133.33528849 -112.5625 137.25 C-113.8825 136.92 -115.2025 136.59 -116.5625 136.25 C-121.62328162 112.27351003 -116.50423078 84.91297328 -105.5625 63.25 C-104.9025 62.59 -104.2425 61.93 -103.5625 61.25 C-103.29179687 60.528125 -103.02109375 59.80625 -102.7421875 59.0625 C-101.20443178 55.39632743 -99.02870823 52.44441822 -96.6875 49.25 C-96.25308594 48.64671875 -95.81867188 48.0434375 -95.37109375 47.421875 C-90.13989433 40.19559353 -90.13989433 40.19559353 -87.5625 37.25 C-86.9025 37.25 -86.2425 37.25 -85.5625 37.25 C-85.35753906 36.70085937 -85.15257812 36.15171875 -84.94140625 35.5859375 C-83.03464271 32.35578284 -80.36050799 30.22768474 -77.5 27.875 C-76.9107373 27.38604248 -76.32147461 26.89708496 -75.71435547 26.39331055 C-71.18398543 22.67613142 -66.61835963 19.22920323 -61.5625 16.25 C-60.48871094 15.61449219 -59.41492188 14.97898437 -58.30859375 14.32421875 C-51.58472123 10.48031385 -44.77342898 7.36860498 -37.4375 4.875 C-36.4012146 4.51728516 -36.4012146 4.51728516 -35.34399414 4.15234375 C-23.77864319 0.43380601 -12.06349984 -0.070927 0 0 Z " fill="#FD90F9" transform="translate(285.5625,358.75)"/>
<path d="M0 0 C0.75140259 -0.0049649 1.50280518 -0.00992981 2.27697754 -0.01504517 C4.77865503 -0.02972038 7.28026884 -0.03648221 9.78198242 -0.04199219 C11.52300518 -0.04774497 13.26402793 -0.05350269 15.00505066 -0.05926514 C18.66792089 -0.06979421 22.33076909 -0.07562249 25.99365234 -0.07910156 C30.65930604 -0.08455091 35.32466264 -0.10849361 39.99022388 -0.13707352 C43.59448551 -0.15582896 47.19867796 -0.16091259 50.80298424 -0.16243744 C52.52076506 -0.16544207 54.23854532 -0.1733955 55.95627785 -0.18662262 C75.21506595 -0.32417496 75.21506595 -0.32417496 83.82495117 3.16113281 C84.31995117 4.15113281 84.31995117 4.15113281 84.82495117 5.16113281 C84.22779297 5.02396347 83.63063477 4.88679413 83.01538086 4.74546814 C76.67279777 3.37166962 70.5533824 2.74985911 64.07495117 2.54003906 C63.05054932 2.50229874 62.02614746 2.46455841 60.97070312 2.42567444 C47.59220398 1.98419446 34.20878057 2.05349199 20.82495117 2.09863281 C18.18823329 2.10366534 15.55151445 2.1082251 12.91479492 2.11230469 C6.55149249 2.12315424 0.18822649 2.13974927 -6.17504883 2.16113281 C-6.16981201 3.46405273 -6.1645752 4.76697266 -6.15917969 6.109375 C-6.03765175 39.4736896 -6.39953692 72.80587083 -7.17504883 106.16113281 C-7.50504883 106.16113281 -7.83504883 106.16113281 -8.17504883 106.16113281 C-8.19816933 92.48810719 -8.21596242 78.81508618 -8.226861 65.14204502 C-8.23209047 58.79382705 -8.23918927 52.44562241 -8.25048828 46.09741211 C-8.26131489 39.97664699 -8.26732518 33.85589473 -8.26992607 27.73512077 C-8.27178073 25.39422338 -8.27540211 23.05332672 -8.28077888 20.71243477 C-8.28798631 17.44605079 -8.2890399 14.17972066 -8.28857422 10.91333008 C-8.29216949 9.93509781 -8.29576477 8.95686554 -8.29946899 7.94898987 C-8.29809433 7.06412903 -8.29671967 6.17926819 -8.29530334 5.26759338 C-8.29622514 4.49420907 -8.29714693 3.72082476 -8.29809666 2.92400455 C-7.99673711 -1.39348917 -3.32526256 0.0051897 0 0 Z " fill="#60176B" transform="translate(667.175048828125,444.8388671875)"/>
<path d="M0 0 C9.9 0 19.8 0 30 0 C30 0.33 30 0.66 30 1 C20.43 1 10.86 1 1 1 C1 38.62 1 76.24 1 115 C9.25 115 17.5 115 26 115 C22.60102327 117.26598448 21.43680827 117.23742654 17.45703125 117.1953125 C15.84731445 117.18564453 15.84731445 117.18564453 14.20507812 117.17578125 C12.52575195 117.15064453 12.52575195 117.15064453 10.8125 117.125 C9.68134766 117.11597656 8.55019531 117.10695313 7.38476562 117.09765625 C4.58963172 117.07406862 1.79492155 117.041153 -1 117 C-1.33 116.01 -1.66 115.02 -2 114 C-1.34 114 -0.68 114 0 114 C0 76.38 0 38.76 0 0 Z " fill="#460053" transform="translate(929,447)"/>
<path d="M0 0 C0.33 0 0.66 0 1 0 C2.18469464 6.51143275 2.12822714 12.9193707 2.08984375 19.5234375 C2.08605209 20.74791595 2.08226044 21.97239441 2.07835388 23.23397827 C2.02381993 36.08474465 1.84961579 48.93386111 1.62768555 61.78271484 C1.56100452 65.71314935 1.50213636 69.64365894 1.44335938 73.57421875 C1.40151039 76.08334119 1.35921106 78.59245618 1.31640625 81.1015625 C1.29969376 82.2720816 1.28298126 83.44260071 1.26576233 84.64859009 C1.24581711 85.71926727 1.22587189 86.78994446 1.20532227 87.89306641 C1.18977798 88.83453522 1.1742337 89.77600403 1.15821838 90.7460022 C1 93 1 93 0 95 C-0.15067214 96.4465242 -0.24861036 97.8987934 -0.31640625 99.3515625 C-0.35830078 100.20234375 -0.40019531 101.053125 -0.44335938 101.9296875 C-0.48267578 102.81914063 -0.52199219 103.70859375 -0.5625 104.625 C-0.60568359 105.5221875 -0.64886719 106.419375 -0.69335938 107.34375 C-0.79956861 109.56234283 -0.90161194 111.7810488 -1 114 C-1.66 114 -2.32 114 -3 114 C-3 107.07 -3 100.14 -3 93 C-2.34 93 -1.68 93 -1 93 C-0.67 62.31 -0.34 31.62 0 0 Z " fill="#5E1469" transform="translate(871,445)"/>
<path d="M0 0 C5.61 0 11.22 0 17 0 C17 33.33 17 66.66 17 101 C16.67 101 16.34 101 16 101 C15.67 68.33 15.34 35.66 15 2 C9.72 2 4.44 2 -1 2 C-0.67 1.34 -0.34 0.68 0 0 Z " fill="#4E0A5A" transform="translate(517,445)"/>
<path d="M0 0 C0.66 0 1.32 0 2 0 C1.67 37.62 1.34 75.24 1 114 C0.01 113.67 -0.98 113.34 -2 113 C-3.4783226 110.04335481 -3.06032783 107.25770263 -3 104 C-2.67 104.66 -2.34 105.32 -2 106 C-1.34 106 -0.68 106 0 106 C-0.02212303 104.14077408 -0.02212303 104.14077408 -0.04469299 102.24398804 C-0.18301075 90.56129479 -0.31572695 78.87854955 -0.4429636 67.19573021 C-0.50855655 61.18953229 -0.57612069 55.18337003 -0.64819336 49.17724609 C-0.71767857 43.38069703 -0.78198108 37.58411148 -0.84269524 31.78746414 C-0.86676516 29.57627908 -0.89270042 27.36511351 -0.92053413 25.15397263 C-0.9592085 22.05629268 -0.99124199 18.9586097 -1.02172852 15.86083984 C-1.03467453 14.94733765 -1.04762054 14.03383545 -1.06095886 13.09265137 C-1.09816668 8.60168425 -0.92485487 4.42115664 0 0 Z " fill="#580A64" transform="translate(1021,447)"/>
<path d="M0 0 C0.33 0 0.66 0 1 0 C3.73379188 14.36881012 1.9949328 30.01773519 -2 44 C-2.66 44 -3.32 44 -4 44 C-3.86722656 43.07445312 -3.73445313 42.14890625 -3.59765625 41.1953125 C-2.17914721 30.63097649 -1.63040251 20.12703227 -1.34204102 9.47314453 C-1.31037842 8.38888184 -1.27871582 7.30461914 -1.24609375 6.1875 C-1.22216553 5.21167969 -1.1982373 4.23585938 -1.17358398 3.23046875 C-1 1 -1 1 0 0 Z " fill="#F959F6" transform="translate(409,470)"/>
<path d="M0 0 C6.63858223 -0.02532254 13.27715203 -0.04285528 19.91577148 -0.05493164 C22.1748908 -0.05996526 24.43400686 -0.06679262 26.69311523 -0.07543945 C29.93734543 -0.08754745 33.18153261 -0.09323799 36.42578125 -0.09765625 C37.94465691 -0.10539818 37.94465691 -0.10539818 39.49421692 -0.11329651 C40.43496567 -0.11337204 41.37571442 -0.11344757 42.3449707 -0.11352539 C43.17325882 -0.115746 44.00154694 -0.11796661 44.85493469 -0.12025452 C47 0 47 0 50 1 C49.34 2.32 48.68 3.64 48 5 C47.505 4.01 47.505 4.01 47 3 C36.44 3 25.88 3 15 3 C15 2.67 15 2.34 15 2 C10.05 1.67 5.1 1.34 0 1 C0 0.67 0 0.34 0 0 Z " fill="#310238" transform="translate(577,444)"/>
<path d="M0 0 C0.495 0.99 0.495 0.99 1 2 C-0.52367187 1.89171875 -0.52367187 1.89171875 -2.078125 1.78125 C-16.99461632 0.75572984 -31.15122873 1.260395 -46 3 C-46 2.34 -46 1.68 -46 1 C-31.26728684 -2.37206514 -14.77407294 -4.47364452 0 0 Z " fill="#FE89FB" transform="translate(316,369)"/>
<path d="M0 0 C0.33 0 0.66 0 1 0 C1.02505615 0.81154541 1.0501123 1.62309082 1.07592773 2.45922852 C1.19245817 6.16045716 1.314925 9.86146681 1.4375 13.5625 C1.47681641 14.83931641 1.51613281 16.11613281 1.55664062 17.43164062 C1.59853516 18.67236328 1.64042969 19.91308594 1.68359375 21.19140625 C1.73858032 22.89598999 1.73858032 22.89598999 1.79467773 24.63500977 C2.00808997 28.13258507 2.47165472 31.53736695 3 35 C3.50848783 41.85867305 2.40294041 48.29845429 1 55 C0.67 55 0.34 55 0 55 C0 36.85 0 18.7 0 0 Z " fill="#3B0147" transform="translate(917,485)"/>
<path d="M0 0 C3.12498063 -0.02895976 6.2499269 -0.04678483 9.375 -0.0625 C10.70917969 -0.07506836 10.70917969 -0.07506836 12.0703125 -0.08789062 C13.34648437 -0.09272461 13.34648437 -0.09272461 14.6484375 -0.09765625 C15.43395996 -0.10289307 16.21948242 -0.10812988 17.02880859 -0.11352539 C19 0 19 0 21 1 C20.67 2.32 20.34 3.64 20 5 C20 4.34 20 3.68 20 3 C13.4 3 6.8 3 0 3 C0 2.01 0 1.02 0 0 Z " fill="#33043B" transform="translate(451,444)"/>
<path d="M0 0 C0.66 0.33 1.32 0.66 2 1 C0.68 2.32 -0.64 3.64 -2 5 C-1.49210938 5.3403125 -0.98421875 5.680625 -0.4609375 6.03125 C4.57462635 9.57689047 9.16301083 13.42273719 12 19 C12.15625 21.74609375 12.15625 21.74609375 12 24 C9.94786232 21.94786232 9.04685414 20.25959404 7.75 17.6875 C4.7031279 12.12986234 1.66412038 9.03604681 -4.375 6.6875 C-5.24125 6.460625 -6.1075 6.23375 -7 6 C-7 5.34 -7 4.68 -7 4 C-1.7265625 0.77734375 -1.7265625 0.77734375 0 0 Z " fill="#590A62" transform="translate(753,499)"/>
<path d="M0 0 C5.61 0 11.22 0 17 0 C17 4.29 17 8.58 17 13 C16.34 12.67 15.68 12.34 15 12 C15 8.7 15 5.4 15 2 C9.72 2 4.44 2 -1 2 C-0.67 1.34 -0.34 0.68 0 0 Z " fill="#661F70" transform="translate(517,445)"/>
<path d="M0 0 C5.58691546 1.82256084 11.06877659 3.89232094 16.5625 5.9765625 C19.91951211 6.97603656 22.52409338 7.20134825 26 7 C26 7.66 26 8.32 26 9 C26.66 9.33 27.32 9.66 28 10 C22.68190811 9.55091668 18.0729473 8.73222591 13 7 C12.01 7.495 12.01 7.495 11 8 C8.65234375 6.85546875 8.65234375 6.85546875 5.9375 5.1875 C5.03902344 4.64480469 4.14054688 4.10210938 3.21484375 3.54296875 C1 2 1 2 0 0 Z " fill="#FE78F9" transform="translate(241,556)"/>
<path d="M0 0 C2.20192224 3.30288336 2.23959968 4.27462727 2.1953125 8.10546875 C2.18886719 9.08837891 2.18242188 10.07128906 2.17578125 11.08398438 C2.15902344 12.10814453 2.14226563 13.13230469 2.125 14.1875 C2.11597656 15.22326172 2.10695313 16.25902344 2.09765625 17.32617188 C2.07407983 19.88421306 2.03820876 22.44213553 2 25 C5.96 24.67 9.92 24.34 14 24 C12 26 12 26 0 27 C0 18.09 0 9.18 0 0 Z " fill="#5F1769" transform="translate(705,471)"/>
<path d="M0 0 C1.03125 -0.01417969 2.0625 -0.02835937 3.125 -0.04296875 C5.96545203 0.18473053 7.59107948 0.72245939 10 2.1875 C5.71702469 3.24369003 1.57014354 3.30452092 -2.8125 3.25 C-3.50537109 3.24548828 -4.19824219 3.24097656 -4.91210938 3.23632812 C-6.60811068 3.22463156 -8.30406703 3.20669924 -10 3.1875 C-10 2.5275 -10 1.8675 -10 1.1875 C-6.63007987 0.17490381 -3.51102519 0.02194391 0 0 Z " fill="#44104C" transform="translate(507,443.8125)"/>
<path d="M0 0 C0.66 0 1.32 0 2 0 C1.51679152 6.2054142 0.66681876 11.99945246 -1 18 C-1.66 18 -2.32 18 -3 18 C-2.69272975 15.18683642 -2.37944848 12.37457481 -2.0625 9.5625 C-1.97548828 8.76005859 -1.88847656 7.95761719 -1.79882812 7.13085938 C-1.11328125 1.11328125 -1.11328125 1.11328125 0 0 Z " fill="#F565F1" transform="translate(408,496)"/>
<path d="M0 0 C0.99 0.33 1.98 0.66 3 1 C1.2308289 3.10558394 -0.5402601 5.20950158 -2.3125 7.3125 C-2.81201172 7.90740234 -3.31152344 8.50230469 -3.82617188 9.11523438 C-4.31279297 9.69208984 -4.79941406 10.26894531 -5.30078125 10.86328125 C-5.74591064 11.39219971 -6.19104004 11.92111816 -6.6496582 12.46606445 C-8.03986605 14.04528627 -9.49726496 15.52812987 -11 17 C-10.12429445 12.59214242 -7.68803513 9.69289817 -4.9375 6.25 C-4.46505859 5.64800781 -3.99261719 5.04601562 -3.50585938 4.42578125 C-2.34309599 2.94590057 -1.1723234 1.47231904 0 0 Z " fill="#5D0E68" transform="translate(789,503)"/>
<path d="M0 0 C2.64 0 5.28 0 8 0 C8.33 0.99 8.66 1.98 9 3 C4.545 3.495 4.545 3.495 0 4 C0 2.68 0 1.36 0 0 Z " fill="#480850" transform="translate(872,444)"/>
<path d="M0 0 C-3.53411321 2.12046792 -6.94393835 2.53199289 -11 3 C-11.33 2.01 -11.66 1.02 -12 0 C-7.74433453 -1.16063604 -4.3164922 -0.76173392 0 0 Z " fill="#FE8AFA" transform="translate(269,363)"/>
<path d="M0 0 C3.91211733 1.15585285 6.8745041 2.35534962 10 5 C9.01 5.33 8.02 5.66 7 6 C5.17578125 5.0390625 5.17578125 5.0390625 3.3125 3.625 C2.68988281 3.16351562 2.06726563 2.70203125 1.42578125 2.2265625 C0.95527344 1.82179688 0.48476562 1.41703125 0 1 C0 0.67 0 0.34 0 0 Z " fill="#FE95FA" transform="translate(241,556)"/>
<path d="M0 0 C0 0.66 0 1.32 0 2 C-1.28745036 2.38922918 -2.58019597 2.76098036 -3.875 3.125 C-4.95394531 3.43824219 -4.95394531 3.43824219 -6.0546875 3.7578125 C-6.69664062 3.83773438 -7.33859375 3.91765625 -8 4 C-8.66 3.34 -9.32 2.68 -10 2 C-3.375 -1.125 -3.375 -1.125 0 0 Z " fill="#FE5CFA" transform="translate(270,400)"/>
</svg>
